<svg id="svg" version="1.1" xmlns="http://www.w3.org/2000/svg" xmlns:xlink="http://www.w3.org/1999/xlink" width="400" height="298.59154929577466" viewBox="0, 0, 400,298.59154929577466"><g id="svgg"><path id="path0" d="M177.965 34.259 C 169.785 38.020,78.665 125.861,75.780 132.767 C 68.148 151.032,71.397 155.913,125.552 207.548 C 174.359 254.084,180.627 258.687,192.217 256.513 C 208.898 253.383,214.085 243.112,214.085 213.206 L 214.085 191.549 263.257 191.549 C 333.227 191.549,336.150 189.666,336.150 144.601 C 336.150 99.535,333.227 97.653,263.257 97.653 L 214.085 97.653 214.082 75.587 C 214.077 40.779,199.661 24.284,177.965 34.259 M193.052 52.958 C 194.597 54.503,195.305 63.754,195.305 82.387 C 195.305 119.886,189.096 116.432,256.495 116.432 C 323.006 116.432,317.371 113.824,317.371 144.601 C 317.371 175.369,322.957 172.770,256.821 172.770 C 189.138 172.770,195.305 169.389,195.305 206.488 C 195.305 234.745,194.400 238.498,187.587 238.498 C 181.331 238.498,92.019 150.707,92.019 144.558 C 92.019 139.904,98.677 132.794,138.498 94.923 C 183.845 51.795,188.392 48.298,193.052 52.958 " stroke="none" fill="#000000" fill-rule="evenodd"></path></g></svg>